<svg xmlns="http://www.w3.org/2000/svg" viewBox="0 0 300 300"><path d="M77.31,287.92a19.73,19.73,0,0,1-16.91-9.73l-3.33-5.53a21.08,21.08,0,0,1,6.38-28.42,19.51,19.51,0,0,1,27.42,6.61l3.32,5.53a21.07,21.07,0,0,1-6.37,28.42A19.32,19.32,0,0,1,77.31,287.92Z" fill="#142131"/><path d="M49.62,241.83a19.76,19.76,0,0,1-16.92-9.72L8.33,191.55a21.07,21.07,0,0,1,6.38-28.42,19.51,19.51,0,0,1,27.42,6.6L66.5,210.29a21.08,21.08,0,0,1-6.37,28.42A19.28,19.28,0,0,1,49.62,241.83Z" fill="#5e3984"/><path d="M141.85,300a19.74,19.74,0,0,1-16.92-9.73L59.74,181.79a21.08,21.08,0,0,1,6.37-28.42A19.51,19.51,0,0,1,93.54,160l65.19,108.49a21.08,21.08,0,0,1-6.38,28.42A19.31,19.31,0,0,1,141.85,300Z" fill="#3d728f"/><path d="M52.28,151a19.73,19.73,0,0,1-16.91-9.73l-19-31.62a21.08,21.08,0,0,1,6.38-28.42,19.5,19.5,0,0,1,27.42,6.6l19,31.63a21.08,21.08,0,0,1-6.38,28.42A19.32,19.32,0,0,1,52.28,151Z" fill="#142131"/><path d="M195.47,293.92a19.74,19.74,0,0,1-16.85-9.61l-.17-.29a21.08,21.08,0,0,1,6.2-28.46A19.5,19.5,0,0,1,212.11,262l.17.28a21.07,21.07,0,0,1-6.2,28.46A19.31,19.31,0,0,1,195.47,293.92Z" fill="#142131"/><path d="M172.21,255.21a19.74,19.74,0,0,1-16.92-9.73L83.11,125.37A21.07,21.07,0,0,1,89.49,97a19.5,19.5,0,0,1,27.42,6.61l72.18,120.11a21.08,21.08,0,0,1-6.38,28.42A19.31,19.31,0,0,1,172.21,255.21Z" fill="#4bb4a2"/><path d="M75.66,94.54a19.74,19.74,0,0,1-16.92-9.73L46.55,64.53a21.08,21.08,0,0,1,6.38-28.42,19.51,19.51,0,0,1,27.42,6.61L92.54,63a21.08,21.08,0,0,1-6.38,28.42A19.31,19.31,0,0,1,75.66,94.54Z" fill="#94d1cf"/><path d="M236.56,267a19.73,19.73,0,0,1-16.91-9.73L162,161.41A21.08,21.08,0,0,1,168.42,133a19.51,19.51,0,0,1,27.42,6.61l57.61,95.86a21.08,21.08,0,0,1-6.38,28.42A19.25,19.25,0,0,1,236.56,267Z" fill="#9ac982"/><path d="M153.48,128.74A19.75,19.75,0,0,1,136.56,119L88.93,39.74A21.08,21.08,0,0,1,95.3,11.32a19.52,19.52,0,0,1,27.43,6.61L170.36,97.2A21.08,21.08,0,0,1,164,125.62,19.37,19.37,0,0,1,153.48,128.74Z" fill="#3d8f7d"/><path d="M266.76,221.94a19.74,19.74,0,0,1-16.92-9.73L171.18,81.32a21.08,21.08,0,0,1,6.38-28.42A19.5,19.5,0,0,1,205,59.5l78.66,130.89a21.08,21.08,0,0,1-6.38,28.42A19.24,19.24,0,0,1,266.76,221.94Z" fill="#e2bebb"/><path d="M164.84,52.33a19.74,19.74,0,0,1-16.92-9.73l-6.65-11.06a21.08,21.08,0,0,1,6.38-28.42,19.5,19.5,0,0,1,27.42,6.61l6.65,11.06a21.07,21.07,0,0,1-6.38,28.42A19.31,19.31,0,0,1,164.84,52.33Z" fill="#142131"/><path d="M274.79,140a19.75,19.75,0,0,1-16.92-9.72l-11.08-18.44a21.08,21.08,0,0,1,6.38-28.42A19.5,19.5,0,0,1,280.59,90l11.08,18.43a21.07,21.07,0,0,1-6.38,28.42A19.23,19.23,0,0,1,274.79,140Z" fill="#142131"/><path d="M240.45,82.84a19.75,19.75,0,0,1-16.92-9.72L208,47.31a21.08,21.08,0,0,1,6.37-28.42,19.51,19.51,0,0,1,27.43,6.6L257.33,51.3A21.08,21.08,0,0,1,251,79.72,19.23,19.23,0,0,1,240.45,82.84Z" fill="#b95f5f"/></svg>